<?xml version="1.0" encoding="utf-8"?>
<!-- Generator: Adobe Illustrator 23.1.0, SVG Export Plug-In . SVG Version: 6.00 Build 0)  -->
<svg version="1.1"
	 id="图层_1" xmlns:cc="http://creativecommons.org/ns#" xmlns:dc="http://purl.org/dc/elements/1.1/" xmlns:inkscape="http://www.inkscape.org/namespaces/inkscape" xmlns:rdf="http://www.w3.org/1999/02/22-rdf-syntax-ns#" xmlns:sodipodi="http://sodipodi.sourceforge.net/DTD/sodipodi-0.dtd" xmlns:svg="http://www.w3.org/2000/svg"
	 xmlns="http://www.w3.org/2000/svg" xmlns:xlink="http://www.w3.org/1999/xlink" x="0px" y="0px" viewBox="0 0 84 86"
	 style="enable-background:new 0 0 84 86;" xml:space="preserve">
<style type="text/css">
	.st0{fill:#1BA13A;}
</style>
<g transform="translate(0,-952.36218)">
	<path class="st0" d="M0,952.4l24.5,40.5c4.7-4,10.8-6.5,17.5-6.5c2.9,0,5.7,0.5,8.4,1.3L29,952.4H0z M55,952.4l-11.6,18.8l11,18.2
		c1.8,1,3.6,2.1,5.1,3.5L84,952.4H55z M42,988.4c-13.8,0-25,11.2-25,25s11.2,25,25,25s25-11.2,25-25S55.8,988.4,42,988.4z M42,996.4
		l4.9,10.2l11.1,1.6l-8,7.9l1.9,11.2l-9.9-5.3l-9.9,5.3l1.9-11.2l-8-7.9l11.1-1.6L42,996.4z"/>
</g>
</svg>
