<?xml version="1.0" encoding="utf-8"?>
<!-- Generator: Adobe Illustrator 23.1.0, SVG Export Plug-In . SVG Version: 6.00 Build 0)  -->
<svg version="1.1" id="图层_1" xmlns="http://www.w3.org/2000/svg" xmlns:xlink="http://www.w3.org/1999/xlink" x="0px" y="0px"
	 viewBox="0 0 90 66.9" style="enable-background:new 0 0 90 66.9;" xml:space="preserve">
<style type="text/css">
	.st0{fill:#FFB402;}
</style>
<path class="st0" d="M81.5,4c-2.9-0.6-6.3-0.2-9.4,1c0-1.7,0-3.4,0-5H45h-27c0,1.6-0.1,3.3,0,5c-3.2-1.2-6.5-1.6-9.4-1
	C4.2,5,1.3,7.9,0.3,12.3C-1,18.1,1.9,24.7,8.4,30.9c5.1,4.9,12,9,19.3,11.5c3,4.3,6.9,7.7,11.8,9.8c-0.7,2.6-3.2,10.2-9.3,14.8H45
	h14.8c-6.1-4.6-8.6-12.2-9.3-14.8c4.9-2.1,8.8-5.5,11.8-9.8c7.3-2.5,14.2-6.6,19.3-11.5c6.5-6.2,9.4-12.8,8.1-18.6
	C88.7,7.9,85.8,5,81.5,4z M12.7,26.3C8,21.8,5.7,17.1,6.4,13.7c0.5-2,1.5-3.1,3.4-3.6c2.5-0.5,5.7,0.3,8.4,1.9
	c0.6,7.2,2,14.7,4.7,21.4C19.1,31.5,15.6,29.1,12.7,26.3z M77.3,26.3c-2.9,2.7-6.4,5.2-10.2,7.2c2.7-6.7,4.1-14.2,4.7-21.4
	c2.7-1.7,5.9-2.5,8.4-1.9c1.9,0.4,3,1.5,3.4,3.6C84.3,17.1,82,21.8,77.3,26.3z"/>
</svg>
